<svg xmlns="http://www.w3.org/2000/svg" xmlns:xlink="http://www.w3.org/1999/xlink" width="1290" zoomAndPan="magnify" viewBox="0 0 967.5 967.499975" height="1290" preserveAspectRatio="xMidYMid meet" version="1.0"><path fill="#000000" d="M 585.195312 483.671875 L 889.683594 179.179688 C 917.703125 151.160156 917.761719 105.65625 889.730469 77.625 C 861.753906 49.648438 816.230469 49.613281 788.171875 77.667969 L 483.679688 382.160156 L 179.1875 77.667969 C 151.171875 49.648438 105.664062 49.59375 77.632812 77.625 C 49.660156 105.597656 49.621094 151.125 77.675781 179.179688 L 382.167969 483.671875 L 77.675781 788.164062 C 49.660156 816.183594 49.601562 861.6875 77.632812 889.71875 C 105.609375 917.695312 151.132812 917.730469 179.1875 889.675781 L 483.679688 585.183594 L 788.171875 889.675781 C 816.191406 917.695312 861.699219 917.753906 889.730469 889.71875 C 917.703125 861.746094 917.742188 816.21875 889.683594 788.164062 Z M 585.195312 483.671875 " fill-opacity="1" fill-rule="evenodd"/></svg>