<svg xmlns="http://www.w3.org/2000/svg" xmlns:xlink="http://www.w3.org/1999/xlink" width="1290" zoomAndPan="magnify" viewBox="0 0 967.5 967.499975" height="1290" preserveAspectRatio="xMidYMid meet" version="1.0"><defs><clipPath id="14c05baf7c"><path d="M 19.429688 390 L 947.449219 390 L 947.449219 577 L 19.429688 577 Z M 19.429688 390 " clip-rule="nonzero"/></clipPath><clipPath id="9eae3c53b0"><path d="M 390 19.429688 L 577 19.429688 L 577 947.449219 L 390 947.449219 Z M 390 19.429688 " clip-rule="nonzero"/></clipPath></defs><path fill="#ffffff" d="M 0 0 L 967 0 L 967 967 L 0 967 Z M 0 0 " fill-opacity="1" fill-rule="nonzero"/><path fill="#ffffff" d="M 0 0 L 967 0 L 967 967 L 0 967 Z M 0 0 " fill-opacity="1" fill-rule="nonzero"/><g clip-path="url(#14c05baf7c)"><path fill="#000000" d="M 901.050781 576.242188 L 65.832031 576.242188 C 37.992188 576.242188 19.429688 557.683594 19.429688 529.84375 L 19.429688 437.039062 C 19.429688 409.199219 37.992188 390.640625 65.832031 390.640625 L 901.050781 390.640625 C 928.890625 390.640625 947.449219 409.199219 947.449219 437.039062 L 947.449219 529.84375 C 947.449219 557.683594 928.890625 576.242188 901.050781 576.242188 Z M 901.050781 576.242188 " fill-opacity="1" fill-rule="nonzero"/></g><g clip-path="url(#9eae3c53b0)"><path fill="#000000" d="M 390.640625 901.050781 L 390.640625 65.832031 C 390.640625 37.992188 409.199219 19.429688 437.039062 19.429688 L 529.84375 19.429688 C 557.683594 19.429688 576.242188 37.992188 576.242188 65.832031 L 576.242188 901.050781 C 576.242188 928.890625 557.683594 947.449219 529.84375 947.449219 L 437.039062 947.449219 C 409.199219 947.449219 390.640625 928.890625 390.640625 901.050781 Z M 390.640625 901.050781 " fill-opacity="1" fill-rule="nonzero"/></g></svg>