<svg xmlns="http://www.w3.org/2000/svg" xmlns:xlink="http://www.w3.org/1999/xlink" width="1290" zoomAndPan="magnify" viewBox="0 0 967.5 967.499975" height="1290" preserveAspectRatio="xMidYMid meet" version="1.0"><defs><clipPath id="f8a256d142"><path d="M 17.480469 390 L 949.25 390 L 949.25 577 L 17.480469 577 Z M 17.480469 390 " clip-rule="nonzero"/></clipPath><clipPath id="e14cfedcb3"><path d="M 390 17.480469 L 577 17.480469 L 577 949.25 L 390 949.25 Z M 390 17.480469 " clip-rule="nonzero"/></clipPath></defs><path fill="#ffffff" d="M 0 0 L 967 0 L 967 967 L 0 967 Z M 0 0 " fill-opacity="1" fill-rule="nonzero"/><path fill="#ffffff" d="M 0 0 L 967 0 L 967 967 L 0 967 Z M 0 0 " fill-opacity="1" fill-rule="nonzero"/><g clip-path="url(#f8a256d142)"><path fill="#fcb215" d="M 902.90625 576.695312 L 64.082031 576.695312 C 36.121094 576.695312 17.480469 558.054688 17.480469 530.09375 L 17.480469 436.894531 C 17.480469 408.933594 36.121094 390.292969 64.082031 390.292969 L 902.90625 390.292969 C 930.867188 390.292969 949.507812 408.933594 949.507812 436.894531 L 949.507812 530.09375 C 949.507812 558.054688 930.867188 576.695312 902.90625 576.695312 Z M 902.90625 576.695312 " fill-opacity="1" fill-rule="nonzero"/></g><g clip-path="url(#e14cfedcb3)"><path fill="#fcb215" d="M 390.292969 902.90625 L 390.292969 64.082031 C 390.292969 36.121094 408.933594 17.480469 436.894531 17.480469 L 530.09375 17.480469 C 558.054688 17.480469 576.695312 36.121094 576.695312 64.082031 L 576.695312 902.90625 C 576.695312 930.867188 558.054688 949.507812 530.09375 949.507812 L 436.894531 949.507812 C 408.933594 949.507812 390.292969 930.867188 390.292969 902.90625 Z M 390.292969 902.90625 " fill-opacity="1" fill-rule="nonzero"/></g></svg>